<svg width="12" height="8" viewBox="0 0 12 8" fill="none" xmlns="http://www.w3.org/2000/svg">
<path d="M1.28125 3.2168C1.00511 3.2168 0.78125 3.44065 0.78125 3.7168C0.78125 3.99294 1.00511 4.2168 1.28125 4.2168L1.28125 3.2168ZM11.068 4.07035C11.2632 3.87509 11.2632 3.55851 11.068 3.36325L7.88598 0.181264C7.69072 -0.0139981 7.37413 -0.0139982 7.17887 0.181264C6.98361 0.376526 6.98361 0.693109 7.17887 0.888371L10.0073 3.7168L7.17887 6.54522C6.98361 6.74049 6.98361 7.05707 7.17887 7.25233C7.37413 7.44759 7.69072 7.44759 7.88598 7.25233L11.068 4.07035ZM1.28125 4.2168L10.7144 4.2168L10.7144 3.2168L1.28125 3.2168L1.28125 4.2168Z" fill="white"/>
</svg>
